<?xml version="1.0" encoding="utf-8"?>
<!-- Generator: Adobe Illustrator 21.0.0, SVG Export Plug-In . SVG Version: 6.00 Build 0)  -->
<svg version="1.1" id="图层_1" xmlns="http://www.w3.org/2000/svg" xmlns:xlink="http://www.w3.org/1999/xlink" x="0px" y="0px"
	 viewBox="0 0 200 200" style="enable-background:new 0 0 200 200;" xml:space="preserve">
<style type="text/css">
	.st0{fill:#FFEDCC;}
	.st1{fill:#FF6000;}
</style>
<path class="st0" d="M3,35.6h42C45.1,43,51.1,49,58.6,49S72,43,72.1,35.6h126.6v6c-3.1,0-5.6,2.6-5.7,5.8c0,3.2,2.6,5.8,5.7,5.8V59
	c-3.1,0-5.6,2.6-5.7,5.8c0,3.2,2.6,5.8,5.7,5.8v5.8c-3.1,0-5.6,2.6-5.7,5.8c0,3.2,2.6,5.8,5.7,5.8v5.8c-3.1,0-5.6,2.6-5.7,5.8
	c0,3.2,2.6,5.8,5.7,5.8v5.8c-3.1,0-5.6,2.6-5.7,5.8c0,3.2,2.6,5.8,5.7,5.8v5.7c-3.1,0-5.6,2.6-5.7,5.8c0,3.2,2.6,5.8,5.7,5.8v5.8
	c-4.5,0-5.7,4-5.7,5.8c0,3.2,2.5,5.8,5.7,5.8v7.1H72.1c-0.1-7.4-6.1-13.4-13.6-13.4s-13.5,6-13.6,13.4H3v-7.1c3-0.1,5.5-2.7,5.5-5.8
	c0-1.8-1.4-5.8-5.5-5.8v-5.8c3-0.1,5.5-2.6,5.5-5.8c0-3.1-2.5-5.6-5.5-5.8v-5.8c3-0.1,5.5-2.6,5.5-5.8c0-3.1-2.5-5.6-5.5-5.8V105
	c3-0.1,5.5-2.6,5.5-5.8c0-3.1-2.5-5.6-5.5-5.8v-5.8c3-0.1,5.5-2.6,5.5-5.8C8.5,78.7,6,76.2,3,76v-5.8c3-0.1,5.5-2.6,5.5-5.8
	C8.5,61.5,6,59,3,58.9v-5.8c3-0.1,5.5-2.6,5.5-5.8c0-3.1-2.5-5.6-5.5-5.8C3,41.5,3,35.6,3,35.6z"/>
<path class="st1" d="M198.5,166.4H71.9c-0.8,0-1.5-0.7-1.5-1.5c-0.1-6.6-5.5-11.9-12.1-11.9s-12,5.3-12.1,11.9
	c0,0.8-0.7,1.5-1.5,1.5h-42c-0.8,0-1.5-0.7-1.5-1.5v-7.1c0-0.8,0.6-1.5,1.4-1.5c2.3-0.1,4.1-2,4.1-4.3c0-0.9-0.7-4.3-4-4.3
	c-0.8,0-1.5-0.7-1.5-1.5v-5.8c0-0.8,0.6-1.5,1.4-1.5c2.2-0.1,4-2,4.1-4.3c0-2.3-1.8-4.2-4.1-4.3c-0.8,0-1.4-0.7-1.4-1.5V123
	c0-0.8,0.6-1.5,1.4-1.5c2.2-0.1,4-2,4.1-4.3c0-2.3-1.8-4.2-4.1-4.3c-0.8,0-1.4-0.7-1.4-1.5v-5.8c0-0.8,0.6-1.5,1.4-1.5
	c2.2-0.1,4-2,4.1-4.3c0-2.3-1.8-4.2-4.1-4.3c-0.8,0-1.4-0.7-1.4-1.5v-5.8c0-0.8,0.6-1.5,1.4-1.5c2.2-0.1,4-2,4.1-4.3
	c0-2.3-1.8-4.2-4.1-4.3c-0.8,0-1.4-0.7-1.4-1.5v-5.8c0-0.8,0.6-1.5,1.4-1.5c2.2-0.1,4-2,4.1-4.3c0-2.3-1.8-4.2-4.1-4.3
	c-0.8,0-1.4-0.7-1.4-1.5v-5.8c0-0.8,0.6-1.5,1.4-1.5c2.2-0.1,4-2,4.1-4.3c0-2.3-1.8-4.2-4.1-4.3c-0.8,0-1.4-0.7-1.4-1.5v-6
	c0-0.8,0.7-1.5,1.5-1.5h42c0.8,0,1.5,0.7,1.5,1.5c0.1,6.6,5.5,11.9,12.1,11.9s12-5.3,12.1-11.9c0-0.8,0.7-1.5,1.5-1.5h126.6
	c0.8,0,1.5,0.7,1.5,1.5v6c0,0.8-0.7,1.5-1.5,1.5c-2.3,0-4.2,1.9-4.2,4.3c0,2.3,1.9,4.3,4.2,4.3c0.8,0,1.5,0.7,1.5,1.5v5.8
	c0,0.8-0.7,1.5-1.5,1.5c-2.3,0-4.2,1.9-4.2,4.3c0,2.3,1.9,4.3,4.2,4.3c0.8,0,1.5,0.7,1.5,1.5v5.8c0,0.8-0.7,1.5-1.5,1.5
	c-2.3,0-4.2,1.9-4.2,4.3c0,2.3,1.9,4.3,4.2,4.3c0.8,0,1.5,0.7,1.5,1.5V94c0,0.8-0.7,1.5-1.5,1.5c-2.3,0-4.2,1.9-4.2,4.3
	c0,2.3,1.9,4.3,4.2,4.3c0.8,0,1.5,0.7,1.5,1.5v5.8c0,0.8-0.7,1.5-1.5,1.5c-2.3,0-4.2,1.9-4.2,4.3c0,2.3,1.9,4.3,4.2,4.3
	c0.8,0,1.5,0.7,1.5,1.5v5.8c0,0.8-0.7,1.5-1.5,1.5c-2.3,0-4.2,1.9-4.2,4.3c0,2.3,1.9,4.3,4.2,4.3c0.8,0,1.5,0.7,1.5,1.5v5.8
	c0,0.8-0.7,1.5-1.5,1.5c-4.2,0-4.2,4.3-4.2,4.4c0,2.4,1.9,4.4,4.2,4.4c0.8,0,1.5,0.7,1.5,1.5v7.1C200,165.8,199.3,166.4,198.5,166.4
	L198.5,166.4z M73.3,163.5H197v-4.3c-3.2-0.7-5.7-3.6-5.7-7.2c0-2.5,1.6-6.4,5.7-7.2v-3.1c-3.2-0.7-5.6-3.6-5.7-7.1
	c0-3.5,2.5-6.4,5.7-7.1v-3.1c-3.2-0.7-5.6-3.6-5.7-7.1c0-3.5,2.5-6.4,5.7-7.1v-3.1c-3.2-0.7-5.6-3.6-5.7-7.1c0-3.5,2.5-6.4,5.7-7.1
	v-3.1c-3.2-0.7-5.6-3.6-5.7-7.1c0-3.5,2.5-6.4,5.7-7.1v-3.1c-3.2-0.7-5.6-3.6-5.7-7.1c0-3.5,2.5-6.4,5.7-7.1v-3.1
	c-3.2-0.7-5.6-3.6-5.7-7.1c0-3.5,2.5-6.4,5.7-7.1v-3.1H73.3c-0.8,7.5-7.3,13.4-14.9,13.4c-7.7,0-14.1-5.9-14.9-13.4H4.3V41
	c3.1,0.8,5.4,3.6,5.5,7c0,3.4-2.3,6.3-5.5,7.1v3.2c3.1,0.8,5.4,3.6,5.5,7c0,3.4-2.3,6.3-5.5,7.1v3.2c3.1,0.8,5.4,3.6,5.5,7
	c0,3.4-2.3,6.3-5.5,7.1v3.2c3.1,0.8,5.4,3.6,5.5,7c0,3.4-2.3,6.3-5.5,7.1v3.2c3.1,0.8,5.4,3.6,5.5,7c0,3.4-2.3,6.3-5.5,7.1v3.2
	c3.1,0.8,5.4,3.6,5.5,7c0,3.4-2.3,6.3-5.5,7.1v3.2c3.7,0.8,5.5,4.5,5.5,7.1c0,3.5-2.3,6.3-5.5,7.1v4.4h39.1
	c0.8-7.5,7.3-13.4,14.9-13.4C66,150.1,72.4,155.9,73.3,163.5L73.3,163.5z"/>
<path class="st1" d="M94.8,76h28.3c1.7-4.8,2.9-10,3.8-15.7l4.8,0.5c-0.9,5.4-2.1,10.4-3.7,15.2h33v4.3h-34.6
	c-1.7,4.1-3.5,7.8-5.6,11.1h45v4.4H145c4.6,6.7,12.4,12.8,23.4,18.1l-3.1,3.8c-12.1-6.6-20.5-13.9-25.2-21.9h-22.4
	c-7,9.4-16.2,16.8-27.8,22.2l-2.7-4.1c10.2-4.4,18.4-10.5,24.7-18.1h-22v-4.4h25.3c2.5-3.7,4.5-7.4,6.1-11.1H94.8V76z M105.2,113.7
	v-4.5h45.9c-0.3,8.2-0.8,14.7-1.4,19.3c-0.7,4.7-1.9,8.1-3.6,10.1c-1.8,1.8-4.5,2.8-8.1,3h-12.5l-1.2-4.6c4,0.2,7.8,0.3,11.4,0.3
	c4.1,0,6.8-1.5,8.1-4.3c1.4-3,2.3-9.4,2.7-19.3h-23.2c-1.8,6.9-4.3,12.3-7.5,16.4c-3.9,4.5-9.6,8.5-17.1,12.1l-3-3.8
	c7-3.1,12.3-6.6,15.9-10.3c3.3-3.7,5.7-8.5,7.3-14.4L105.2,113.7L105.2,113.7z M106.7,61.2c2.4,3.6,4.6,7.6,6.7,12.1l-4,1.8
	c-2.2-4.8-4.5-8.9-6.9-12.4L106.7,61.2L106.7,61.2z M154.2,62c-2.1,5.1-4.6,9.5-7.7,13.1l-3.6-2c2.8-3.6,5.2-7.8,7.1-12.6L154.2,62z
	 M58.3,140.9c-0.8,0-1.5-0.7-1.5-1.5V61.8c0-0.8,0.7-1.5,1.5-1.5s1.5,0.7,1.5,1.5v77.6C59.8,140.2,59.1,140.9,58.3,140.9z"/>
</svg>
